<svg width="42" height="40" viewBox="0 0 42 40" fill="none" xmlns="http://www.w3.org/2000/svg">
<path d="M27.1038 5.1296C27.1583 5.67977 27.0401 6.14356 26.5854 6.39819C26.2489 6.58916 25.917 6.43002 25.6078 6.21177C25.385 6.05717 25.1622 5.90257 24.9258 5.76617C22.766 4.51576 20.5971 3.16077 18.4419 1.91037C17.4052 1.31017 17.4688 1.33746 18.3737 0.650869C19.6104 -0.294893 20.5789 -0.131203 21.9521 0.637228C23.298 1.39202 24.3029 1.96038 25.5123 2.68789C26.5218 3.19715 27.0492 3.77461 27.1038 5.1296Z" fill="white"/>
<path d="M36.611 17.6882C36.1609 18.011 35.6971 18.1384 35.2515 17.8701C34.9196 17.67 34.8923 17.3017 34.9241 16.9289C34.9469 16.6561 34.9696 16.3878 34.9696 16.115C34.9787 13.6187 35.0742 11.0633 35.0878 8.57616C35.0924 7.38032 35.1014 7.44852 36.1472 7.88957C37.5841 8.49431 37.9251 9.41279 37.9387 10.986C37.9569 12.5274 37.966 13.6824 37.9296 15.0919C37.9978 16.2241 37.7614 16.9652 36.611 17.6882Z" fill="white"/>
<path d="M30.4553 32.1883C29.9552 31.9564 29.6141 31.6199 29.6232 31.1016C29.6323 30.7151 29.937 30.506 30.2734 30.3514C30.519 30.2377 30.7645 30.1195 31.0009 29.9876C33.1698 28.7508 35.4342 27.5641 37.5985 26.3364C38.6398 25.7453 38.5852 25.7862 38.7216 26.9093C38.9126 28.4553 38.2851 29.2055 36.9301 30.0058C35.6024 30.7879 34.6021 31.3699 33.3654 32.0428C32.415 32.6612 31.6512 32.8249 30.4553 32.1883Z" fill="white"/>
<path d="M14.8132 34.0663C14.7631 33.5161 14.8859 33.0523 15.3406 32.8023C15.6816 32.6158 16.009 32.775 16.3182 32.9932C16.541 33.1524 16.7638 33.3024 16.9957 33.4434C19.1464 34.7074 21.3062 36.0806 23.4478 37.3492C24.4799 37.9585 24.4163 37.9312 23.5069 38.6087C22.261 39.5454 21.2971 39.3771 19.9285 38.595C18.5871 37.8312 17.5868 37.2582 16.3864 36.5171C15.3815 36.0033 14.8586 35.4213 14.8132 34.0663Z" fill="white"/>
<path d="M5.39729 21.4348C5.84743 21.1165 6.31122 20.9938 6.75682 21.262C7.08875 21.4621 7.11148 21.8304 7.0751 22.2032C7.04782 22.4761 7.02509 22.7443 7.02509 23.0171C6.99781 25.5134 6.88413 28.0688 6.85231 30.556C6.83866 31.7518 6.82957 31.6836 5.78832 31.238C4.35604 30.6242 4.02411 29.7011 4.01957 28.1279C4.01502 26.5865 4.01502 25.4316 4.05594 24.022C4.00138 22.8944 4.24691 22.1487 5.39729 21.4348Z" fill="white"/>
<path d="M11.6666 6.98465C12.1667 7.21654 12.5032 7.55756 12.4896 8.08046C12.4805 8.46695 12.1713 8.67156 11.8303 8.82615C11.5847 8.93983 11.3392 9.0535 11.1027 9.18536C8.92477 10.4039 6.6513 11.577 4.47787 12.7865C3.43208 13.3685 3.49119 13.3276 3.35933 12.2045C3.182 10.6586 3.81402 9.90832 5.17355 9.1217C6.51035 8.34873 7.51067 7.77581 8.75653 7.11196C9.70684 6.49813 10.4753 6.33898 11.6666 6.98465Z" fill="white"/>
<path d="M31.4748 1.94678C29.656 1.94678 28.1783 3.42453 28.1783 5.2433C28.1783 6.48007 28.8649 7.56224 29.8743 8.12606C29.8561 11.0361 29.847 13.9416 29.8606 16.8516C29.8652 17.6473 29.5378 18.0111 28.8967 18.5203C28.5238 18.8204 28.2238 19.0842 27.9873 19.3388C27.7736 19.5661 27.4508 19.6616 27.1461 19.5889L25.0227 19.0978C25.291 20.0254 25.0591 21.0393 24.418 21.7623L27.1461 22.3943C27.2462 22.4171 27.3416 22.4171 27.4371 22.4034C27.5644 22.4534 27.7418 22.3852 27.96 22.2625C28.6284 21.876 30.82 20.6528 31.2566 20.3846C32.2251 19.7935 32.657 19.2524 32.6297 18.0975C32.5615 14.8464 32.5479 11.5863 32.6434 8.33522C33.8892 7.86233 34.7713 6.6574 34.7713 5.2524C34.7759 3.42453 33.2936 1.94678 31.4748 1.94678ZM32.6525 7.05753C32.316 7.27578 31.9113 7.40764 31.4748 7.40764C30.8428 7.40764 30.279 7.13937 29.8834 6.70741C29.5287 6.32092 29.315 5.80712 29.315 5.24785C29.315 4.05201 30.2835 3.08806 31.4748 3.08806C32.6706 3.08806 33.6346 4.05655 33.6346 5.24785C33.6391 6.00264 33.2481 6.67104 32.6525 7.05753Z" fill="white"/>
<path d="M23.4156 20.912L23.0473 21.303L22.9609 21.3985L22.5017 21.885C22.1334 22.2806 21.5787 22.4489 21.0558 22.3261L20.5192 22.2033L20.4283 22.1806L19.7372 22.0215C19.2052 21.8987 18.7823 21.4986 18.6277 20.9757L18.4822 20.4846L18.4549 20.3846L18.2503 19.6889C18.1048 19.1751 18.2321 18.6203 18.5959 18.2293L18.9642 17.8383L19.0506 17.7473L19.5144 17.2517C19.8008 16.9425 20.2055 16.7743 20.6193 16.7743C20.7329 16.7743 20.8466 16.7834 20.9557 16.8107L21.4877 16.9334L21.5878 16.9562L22.2698 17.1153C22.8018 17.2381 23.2292 17.6382 23.3793 18.1611L23.5248 18.6613L23.552 18.7613L23.7566 19.457C23.9112 19.9662 23.7794 20.5255 23.4156 20.912Z" fill="white"/>
<path d="M38.7039 18.4203C36.9352 18.4203 35.4847 19.8207 35.4074 21.5759C32.8702 23.0127 30.3376 24.4541 27.814 25.9182C27.1274 26.3183 26.65 26.2137 25.8907 25.9091C25.4132 25.7181 25.0131 25.5863 24.6584 25.509C24.3356 25.4408 24.081 25.2043 23.99 24.8906L23.3898 22.849C22.8579 23.3855 22.1349 23.6765 21.3937 23.6765C21.1846 23.6765 20.9663 23.6538 20.7617 23.6038L21.5529 26.3047C21.6029 26.4729 21.712 26.6093 21.8484 26.6957C21.9121 26.7866 22.0303 26.8685 22.1849 26.9594C22.8533 27.3505 25.004 28.6372 25.4542 28.8828C26.4499 29.4284 27.132 29.533 28.1232 28.9373C30.8695 27.2777 33.6523 25.6681 36.4805 24.1494C37.067 24.686 37.8491 25.0133 38.7039 25.0133C40.5227 25.0133 42.0004 23.5356 42.0004 21.7168C42.0004 19.898 40.5227 18.4203 38.7039 18.4203ZM38.7039 23.8812C38.2856 23.8812 37.8946 23.7629 37.5626 23.5538C36.9488 23.1718 36.5396 22.4943 36.5396 21.7168C36.5396 21.3985 36.6078 21.0939 36.7351 20.8211C37.0761 20.0754 37.8309 19.5525 38.7039 19.5525C39.8997 19.5525 40.8637 20.521 40.8637 21.7123C40.8682 22.9127 39.8997 23.8812 38.7039 23.8812Z" fill="white"/>
<path d="M28.1947 32.584C27.5627 32.584 26.9716 32.7613 26.4669 33.075C23.9661 31.5927 21.4562 30.1195 18.9372 28.6645C18.2506 28.2689 18.1051 27.8006 17.9869 26.9867C17.9141 26.4865 17.8277 26.0773 17.7232 25.7363C17.6277 25.4271 17.7004 25.0906 17.9187 24.8542L19.3919 23.2855C18.4507 23.0491 17.6913 22.3443 17.3958 21.4213L15.4861 23.4628C15.3769 23.5765 15.3133 23.7175 15.3042 23.863V23.8675C15.2542 23.9675 15.2405 24.113 15.2405 24.2904C15.236 25.0634 15.186 27.5733 15.1996 28.0871C15.2269 29.2238 15.4724 29.8695 16.4818 30.4287C19.3373 32.0202 22.1701 33.6571 24.9437 35.3894C24.921 35.5531 24.9073 35.7168 24.9073 35.885C24.9073 37.7038 26.3896 39.1816 28.2038 39.1816C30.0226 39.1816 31.5004 37.7038 31.5004 35.885C31.5004 34.0663 30.0135 32.584 28.1947 32.584ZM28.1947 38.0403C27.0535 38.0403 26.1168 37.1536 26.0395 36.0306C26.035 35.9805 26.035 35.9305 26.035 35.8805C26.035 34.8665 26.7306 34.0163 27.6718 33.7844C27.8401 33.7434 28.0129 33.7207 28.1947 33.7207C29.3906 33.7207 30.3545 34.6892 30.3545 35.8805C30.3591 37.0763 29.3906 38.0403 28.1947 38.0403Z" fill="white"/>
<path d="M17.601 17.3745L14.8683 16.7379C14.7001 16.7015 14.5319 16.7242 14.3909 16.797C14.3045 16.8197 14.1999 16.8697 14.0863 16.9334C13.4133 17.3153 11.2126 18.5203 10.7716 18.7886C9.80306 19.3751 9.36656 19.9116 9.3802 21.0666C9.42567 24.3858 9.41202 27.7096 9.28471 31.0289C8.15707 31.5518 7.375 32.6976 7.375 34.0208C7.375 35.8395 8.85275 37.3173 10.6715 37.3173C12.4903 37.3173 13.968 35.8395 13.968 34.0208C13.968 32.6976 13.1814 31.5518 12.0538 31.0289C12.0947 28.1279 12.1265 25.227 12.1311 22.3261C12.1356 21.5304 12.4676 21.1711 13.1087 20.6664C13.5043 20.3572 13.8225 20.0799 14.0635 19.8116C14.2772 19.5843 14.6001 19.4888 14.9047 19.557L16.9736 20.0344C16.7235 19.1068 16.9554 18.0929 17.601 17.3745ZM12.8404 34.0162C12.8404 35.2121 11.8719 36.176 10.6806 36.176C9.48478 36.176 8.52083 35.2075 8.52083 34.0162C8.52083 33.3433 8.83002 32.7385 9.31199 32.343C9.68484 32.0383 10.1623 31.8519 10.6806 31.8519C11.199 31.8519 11.6764 32.0338 12.0492 32.3384C12.5312 32.7385 12.8404 33.3433 12.8404 34.0162Z" fill="white"/>
<path d="M20.4566 12.8322C20.3975 12.6276 20.2475 12.4684 20.0702 12.3866H20.0656C20.0156 12.3502 19.961 12.3138 19.8974 12.2774C19.2335 11.8819 17.0919 10.5769 16.6418 10.3268C15.646 9.77663 14.9685 9.66296 13.9727 10.2541C11.0581 11.9819 8.10263 13.6597 5.09711 15.2284C4.57876 14.8874 3.96038 14.6919 3.29653 14.6919C1.47775 14.6919 0 16.1696 0 17.9884C0 19.8072 1.47775 21.2849 3.29653 21.2849C5.1153 21.2849 6.59305 19.8072 6.59305 17.9884C6.59305 17.852 6.58396 17.7201 6.57032 17.5883C9.13933 16.1605 11.6993 14.7282 14.2546 13.2732C14.9458 12.8776 15.4232 12.9868 16.178 13.296C16.6509 13.4869 17.0464 13.6188 17.3966 13.7006C17.7103 13.7734 17.9513 14.0098 18.0422 14.3145L18.6151 16.2833C19.3017 15.5967 20.293 15.3102 21.2433 15.524L20.4566 12.8322ZM3.30107 20.1527C2.10523 20.1527 1.14128 19.1842 1.14128 17.9929C1.14128 16.8016 2.10978 15.8331 3.30107 15.8331C3.54206 15.8331 3.7785 15.8741 3.99675 15.9468C4.85158 16.2378 5.46541 17.0426 5.46541 17.9929C5.46541 18.0702 5.46086 18.143 5.45177 18.2203C5.3381 19.307 4.41507 20.1527 3.30107 20.1527Z" fill="white"/>
<path d="M26.7712 11.1179C26.7394 9.98113 26.4847 9.34002 25.4708 8.78529C22.4971 7.16204 19.5416 5.47967 16.6588 3.69727C16.6634 3.64271 16.6634 3.58815 16.6634 3.53359C16.6634 1.71481 15.1811 0.237061 13.3668 0.237061C11.5481 0.237061 10.0703 1.71481 10.0703 3.53359C10.0703 5.35236 11.5481 6.83011 13.3668 6.83011C14.1171 6.83011 14.8082 6.58003 15.3584 6.15717C17.9047 7.63946 20.4555 9.11722 23.02 10.5722C23.7111 10.9633 23.8612 11.4316 23.9885 12.241C24.0658 12.732 24.1476 13.1276 24.2522 13.4686C24.3477 13.7733 24.2704 14.1007 24.0476 14.3325L22.6244 15.8512C23.5656 16.0877 24.3249 16.797 24.6159 17.72L26.5302 15.6784C26.6348 15.5648 26.6939 15.4375 26.7121 15.2965V15.2919C26.7439 15.1919 26.7575 15.0646 26.7575 14.9146C26.753 14.1416 26.7848 11.6317 26.7712 11.1179ZM14.2398 5.50695C13.9716 5.62517 13.676 5.69338 13.3623 5.69338C12.1664 5.69338 11.2025 4.72488 11.2025 3.53359C11.2025 2.33774 12.171 1.37379 13.3623 1.37379C14.4126 1.37379 15.2902 2.12404 15.4812 3.11527C15.5084 3.25168 15.5221 3.39263 15.5221 3.53359C15.5221 4.41114 14.9946 5.17048 14.2398 5.50695Z" fill="white"/>
<g clip-path="url(#clip0_231_197)">
<path fill-rule="evenodd" clip-rule="evenodd" d="M20.3092 18.752C20.3092 18.5243 20.3721 18.3541 20.4764 18.2418C20.5793 18.131 20.737 18.0611 20.9594 18.0611C21.1819 18.0611 21.3394 18.1308 21.4421 18.2415C21.5461 18.3535 21.6089 18.5235 21.6089 18.7513V19.1066H20.3092V18.752ZM20.0492 19.1066V18.752C20.0492 18.4779 20.1255 18.2377 20.2859 18.0649C20.4476 17.8908 20.68 17.8011 20.9594 17.8011C21.2387 17.8011 21.471 17.8906 21.6326 18.0646C21.7929 18.2372 21.8689 18.4772 21.8689 18.7513V19.1066H22.1288C22.2724 19.1066 22.3888 19.2229 22.3888 19.3665V20.9262C22.3888 21.0698 22.2724 21.1862 22.1288 21.1862H19.7893C19.6457 21.1862 19.5293 21.0698 19.5293 20.9262V19.3665C19.5293 19.2229 19.6457 19.1066 19.7893 19.1066H20.0492ZM19.7893 19.3665H22.1288V20.9262H19.7893V19.3665Z" fill="black"/>
</g>
<g clip-path="url(#clip1_231_197)">
<path fill-rule="evenodd" clip-rule="evenodd" d="M31.4389 4.12671C30.9184 4.12671 30.4965 4.54861 30.4965 5.06904C30.4965 5.49871 30.7841 5.86122 31.1773 5.97459C30.8669 6.01241 30.6007 6.1222 30.4001 6.31985C30.1449 6.57141 30.0156 6.9459 30.0156 7.43459C30.0156 7.5028 30.0709 7.55806 30.1391 7.55806C30.2073 7.55806 30.2626 7.5028 30.2626 7.43459C30.2626 6.98747 30.3803 6.6861 30.5735 6.49574C30.767 6.30502 31.0559 6.20633 31.4389 6.20633C31.8218 6.20633 32.1107 6.30502 32.3043 6.49574C32.4974 6.6861 32.6152 6.98747 32.6152 7.43459C32.6152 7.5028 32.6704 7.55806 32.7386 7.55806C32.8068 7.55809 32.8621 7.5028 32.8621 7.43461C32.8621 6.9459 32.7329 6.57141 32.4776 6.31985C32.2771 6.1222 32.0108 6.01242 31.7004 5.97459C32.0936 5.86122 32.3812 5.49871 32.3812 5.06904C32.3812 4.54861 31.9593 4.12671 31.4389 4.12671ZM30.7435 5.06904C30.7435 4.68499 31.0548 4.37366 31.4389 4.37366C31.8229 4.37366 32.1342 4.68499 32.1342 5.06904C32.1342 5.45308 31.8229 5.76441 31.4389 5.76441C31.0548 5.76441 30.7435 5.45308 30.7435 5.06904Z" fill="white"/>
</g>
<path fill-rule="evenodd" clip-rule="evenodd" d="M38.7493 20.4713C38.2146 20.4713 37.7812 20.8908 37.7812 21.4083C37.7812 21.8355 38.0766 22.196 38.4806 22.3087C38.1617 22.3463 37.8882 22.4555 37.6821 22.652C37.4199 22.9021 37.2871 23.2745 37.2871 23.7604C37.2871 23.8282 37.3439 23.8832 37.414 23.8832C37.484 23.8832 37.5408 23.8282 37.5408 23.7604C37.5408 23.3158 37.6618 23.0162 37.8602 22.8269C38.059 22.6373 38.3559 22.5391 38.7493 22.5391C39.1428 22.5391 39.4396 22.6373 39.6385 22.8269C39.8369 23.0162 39.9579 23.3158 39.9579 23.7604C39.9579 23.8282 40.0146 23.8832 40.0847 23.8832C40.1548 23.8832 40.2116 23.8282 40.2116 23.7604C40.2116 23.2745 40.0788 22.9021 39.8166 22.652C39.6105 22.4555 39.337 22.3463 39.0181 22.3087C39.422 22.196 39.7175 21.8355 39.7175 21.4083C39.7175 20.8908 39.284 20.4713 38.7493 20.4713ZM38.0349 21.4083C38.0349 21.0264 38.3548 20.7169 38.7493 20.7169C39.1439 20.7169 39.4638 21.0264 39.4638 21.4083C39.4638 21.7902 39.1439 22.0997 38.7493 22.0997C38.3548 22.0997 38.0349 21.7902 38.0349 21.4083Z" fill="white"/>
<path fill-rule="evenodd" clip-rule="evenodd" d="M28.2708 34.6062C27.7361 34.6062 27.3027 35.0257 27.3027 35.5432C27.3027 35.9704 27.5981 36.3309 28.0021 36.4436C27.6832 36.4812 27.4097 36.5904 27.2036 36.7869C26.9414 37.037 26.8086 37.4094 26.8086 37.8953C26.8086 37.9631 26.8654 38.0181 26.9355 38.0181C27.0055 38.0181 27.0623 37.9631 27.0623 37.8953C27.0623 37.4507 27.1833 37.1511 27.3817 36.9618C27.5805 36.7722 27.8774 36.674 28.2708 36.674C28.6643 36.674 28.9611 36.7722 29.1599 36.9618C29.3584 37.1511 29.4793 37.4507 29.4793 37.8953C29.4793 37.9631 29.5361 38.0181 29.6062 38.0181C29.6763 38.0181 29.7331 37.9631 29.7331 37.8953C29.7331 37.4094 29.6003 37.037 29.338 36.7869C29.132 36.5904 28.8585 36.4812 28.5396 36.4436C28.9435 36.3309 29.239 35.9704 29.239 35.5432C29.239 35.0257 28.8055 34.6062 28.2708 34.6062ZM27.5564 35.5432C27.5564 35.1613 27.8763 34.8518 28.2708 34.8518C28.6654 34.8518 28.9853 35.1613 28.9853 35.5432C28.9853 35.925 28.6654 36.2346 28.2708 36.2346C27.8763 36.2346 27.5564 35.925 27.5564 35.5432Z" fill="white"/>
<path fill-rule="evenodd" clip-rule="evenodd" d="M10.724 33.144C10.1893 33.144 9.7558 33.5635 9.7558 34.081C9.7558 34.5083 10.0513 34.8687 10.4552 34.9814C10.1363 35.019 9.86279 35.1282 9.65674 35.3247C9.39449 35.5749 9.26172 35.9472 9.26172 36.4332C9.26172 36.501 9.31852 36.5559 9.38858 36.5559C9.45864 36.5559 9.51544 36.501 9.51544 36.4332C9.51544 35.9886 9.63638 35.6889 9.83483 35.4996C10.0337 35.31 10.3305 35.2119 10.7239 35.2119C11.1174 35.2119 11.4142 35.31 11.6131 35.4996C11.8115 35.6889 11.9325 35.9886 11.9325 36.4332C11.9325 36.501 11.9892 36.5559 12.0593 36.5559C12.1294 36.556 12.1862 36.501 12.1862 36.4332C12.1862 35.9472 12.0534 35.5749 11.7912 35.3247C11.5851 35.1282 11.3116 35.0191 10.9927 34.9814C11.3966 34.8687 11.6921 34.5083 11.6921 34.081C11.6921 33.5635 11.2586 33.144 10.724 33.144ZM10.0095 34.081C10.0095 33.6992 10.3294 33.3896 10.724 33.3896C11.1185 33.3896 11.4384 33.6992 11.4384 34.081C11.4384 34.4629 11.1185 34.7725 10.724 34.7725C10.3294 34.7725 10.0095 34.4629 10.0095 34.081Z" fill="white"/>
<path fill-rule="evenodd" clip-rule="evenodd" d="M3.3138 17.0594C2.7791 17.0594 2.34565 17.479 2.34565 17.9964C2.34565 18.4237 2.6411 18.7841 3.04505 18.8968C2.72615 18.9345 2.45263 19.0436 2.24658 19.2401C1.98434 19.4903 1.85156 19.8626 1.85156 20.3486C1.85156 20.4164 1.90836 20.4713 1.97842 20.4713C2.04849 20.4713 2.10528 20.4164 2.10528 20.3486C2.10528 19.904 2.22623 19.6043 2.42468 19.415C2.6235 19.2254 2.92032 19.1273 3.31378 19.1273C3.70724 19.1273 4.00408 19.2254 4.20292 19.415C4.40135 19.6043 4.52231 19.904 4.52231 20.3486C4.52231 20.4164 4.57909 20.4713 4.64917 20.4713C4.71923 20.4714 4.77604 20.4164 4.77604 20.3486C4.77604 19.8626 4.64325 19.4903 4.381 19.2401C4.17496 19.0436 3.90143 18.9345 3.58254 18.8968C3.98648 18.7841 4.28195 18.4237 4.28195 17.9964C4.28195 17.479 3.84849 17.0594 3.3138 17.0594ZM2.59937 17.9964C2.59937 17.6146 2.91923 17.305 3.3138 17.305C3.70836 17.305 4.02822 17.6146 4.02822 17.9964C4.02822 18.3783 3.70836 18.6879 3.3138 18.6879C2.91923 18.6879 2.59937 18.3783 2.59937 17.9964Z" fill="white"/>
<path fill-rule="evenodd" clip-rule="evenodd" d="M13.4036 2.43701C12.8689 2.43701 12.4355 2.85651 12.4355 3.37399C12.4355 3.80123 12.7309 4.16168 13.1349 4.27441C12.816 4.31201 12.5425 4.42118 12.3364 4.61771C12.0742 4.86784 11.9414 5.24021 11.9414 5.72612C11.9414 5.79394 11.9982 5.8489 12.0683 5.8489C12.1383 5.8489 12.1951 5.79394 12.1951 5.72612C12.1951 5.28154 12.3161 4.98188 12.5145 4.7926C12.7133 4.60296 13.0102 4.50483 13.4036 4.50483C13.7971 4.50483 14.0939 4.60296 14.2928 4.7926C14.4912 4.98188 14.6122 5.28154 14.6122 5.72612C14.6122 5.79394 14.6689 5.8489 14.739 5.8489C14.8091 5.84892 14.8659 5.79394 14.8659 5.72615C14.8659 5.24021 14.7331 4.86784 14.4708 4.6177C14.2648 4.42118 13.9913 4.31202 13.6724 4.27441C14.0763 4.16168 14.3718 3.80123 14.3718 3.37399C14.3718 2.85651 13.9383 2.43701 13.4036 2.43701ZM12.6892 3.37399C12.6892 2.99213 13.0091 2.68257 13.4036 2.68257C13.7982 2.68257 14.1181 2.99213 14.1181 3.37399C14.1181 3.75586 13.7982 4.06542 13.4036 4.06542C13.0091 4.06542 12.6892 3.75586 12.6892 3.37399Z" fill="white"/>
<defs>
<clipPath id="clip0_231_197">
<rect width="3.8993" height="3.8993" fill="white" transform="translate(19.0098 17.5469)"/>
</clipPath>
<clipPath id="clip1_231_197">
<rect width="3.8993" height="3.8993" fill="white" transform="translate(29.4883 3.89929)"/>
</clipPath>
</defs>
</svg>
